<svg width="32" height="33" viewBox="0 0 32 33" fill="none" xmlns="http://www.w3.org/2000/svg">
<rect x="0.25" y="0.75" width="31.5" height="31.5" rx="7.75" fill="#101828"/>
<rect x="0.25" y="0.75" width="31.5" height="31.5" rx="7.75" stroke="url(#paint0_linear_2254_6078)" stroke-width="0.5"/>
<path fill-rule="evenodd" clip-rule="evenodd" d="M16 9.83325C13.7909 9.83325 12 11.6241 12 13.8333V15.2668C11.8116 15.3081 11.6308 15.3682 11.456 15.4572C10.9543 15.7129 10.5463 16.1208 10.2907 16.6226C10.1258 16.9462 10.0601 17.2906 10.0295 17.6654C9.99999 18.0262 9.99999 18.4691 10 19.0057V19.3275C9.99999 19.8641 9.99999 20.307 10.0295 20.6678C10.0601 21.0425 10.1258 21.387 10.2907 21.7106C10.5463 22.2123 10.9543 22.6203 11.456 22.8759C11.7796 23.0408 12.1241 23.1065 12.4988 23.1371C12.8596 23.1666 13.3025 23.1666 13.8392 23.1666H18.1609C18.6975 23.1666 19.1404 23.1666 19.5012 23.1371C19.8759 23.1065 20.2204 23.0408 20.544 22.8759C21.0457 22.6203 21.4537 22.2123 21.7094 21.7106C21.8742 21.387 21.9399 21.0425 21.9705 20.6678C22 20.307 22 19.8641 22 19.3275V19.0057C22 18.4691 22 18.0262 21.9705 17.6654C21.9399 17.2906 21.8742 16.9462 21.7094 16.6226C21.4537 16.1208 21.0457 15.7129 20.544 15.4572C20.3692 15.3682 20.1884 15.3081 20 15.2668V13.8333C20 11.6241 18.2091 9.83325 16 9.83325ZM18.6667 15.1677V13.8333C18.6667 12.3605 17.4728 11.1666 16 11.1666C14.5272 11.1666 13.3333 12.3605 13.3333 13.8333V15.1677C13.4918 15.1666 13.6603 15.1666 13.8391 15.1666H18.1609C18.3397 15.1666 18.5082 15.1666 18.6667 15.1677Z" fill="url(#paint1_linear_2254_6078)"/>
<defs>
<linearGradient id="paint0_linear_2254_6078" x1="32" y1="1" x2="32" y2="33" gradientUnits="userSpaceOnUse">
<stop stop-color="white" stop-opacity="0.85"/>
<stop offset="1" stop-color="white" stop-opacity="0"/>
</linearGradient>
<linearGradient id="paint1_linear_2254_6078" x1="10" y1="9.83325" x2="23.2597" y2="21.767" gradientUnits="userSpaceOnUse">
<stop stop-color="#777C85"/>
<stop offset="1" stop-color="#282F3D"/>
</linearGradient>
</defs>
</svg>
