<svg width="112" height="33" viewBox="0 0 112 33" fill="none" xmlns="http://www.w3.org/2000/svg">
<rect x="0.25" y="0.75" width="31.5" height="31.5" rx="7.75" fill="#ffffff"/>
<rect x="0.25" y="0.75" width="31.5" height="31.5" rx="7.75" stroke="url(#paint0_linear_2254_6077)" stroke-width="0.5"/>
<path fill-rule="evenodd" clip-rule="evenodd" d="M16 9.83325C13.7909 9.83325 12 11.6241 12 13.8333V15.2668C11.8116 15.3081 11.6308 15.3682 11.456 15.4572C10.9543 15.7129 10.5463 16.1208 10.2907 16.6226C10.1258 16.9462 10.0601 17.2906 10.0295 17.6654C9.99999 18.0262 9.99999 18.4691 10 19.0057V19.3275C9.99999 19.8641 9.99999 20.307 10.0295 20.6678C10.0601 21.0425 10.1258 21.387 10.2907 21.7106C10.5463 22.2123 10.9543 22.6203 11.456 22.8759C11.7796 23.0408 12.1241 23.1065 12.4988 23.1371C12.8596 23.1666 13.3025 23.1666 13.8392 23.1666H18.1609C18.6975 23.1666 19.1404 23.1666 19.5012 23.1371C19.8759 23.1065 20.2204 23.0408 20.544 22.8759C21.0457 22.6203 21.4537 22.2123 21.7094 21.7106C21.8742 21.387 21.9399 21.0425 21.9705 20.6678C22 20.307 22 19.8641 22 19.3275V19.0057C22 18.4691 22 18.0262 21.9705 17.6654C21.9399 17.2906 21.8742 16.9462 21.7094 16.6226C21.4537 16.1208 21.0457 15.7129 20.544 15.4572C20.3692 15.3682 20.1884 15.3081 20 15.2668V13.8333C20 11.6241 18.2091 9.83325 16 9.83325ZM18.6667 15.1677V13.8333C18.6667 12.3605 17.4728 11.1666 16 11.1666C14.5272 11.1666 13.3333 12.3605 13.3333 13.8333V15.1677C13.4918 15.1666 13.6603 15.1666 13.8391 15.1666H18.1609C18.3397 15.1666 18.5082 15.1666 18.6667 15.1677Z" fill="url(#paint1_linear_2254_6077)"/>
<path d="M45.4716 14.0625C45.4186 13.5663 45.1951 13.1799 44.8011 12.9034C44.411 12.6269 43.9034 12.4886 43.2784 12.4886C42.839 12.4886 42.4621 12.5549 42.1477 12.6875C41.8333 12.8201 41.5928 13 41.4261 13.2273C41.2595 13.4545 41.1742 13.714 41.1705 14.0057C41.1705 14.2481 41.2254 14.4583 41.3352 14.6364C41.4489 14.8144 41.6023 14.9659 41.7955 15.0909C41.9886 15.2121 42.2027 15.3144 42.4375 15.3977C42.6723 15.4811 42.9091 15.5511 43.1477 15.608L44.2386 15.8807C44.678 15.983 45.1004 16.1212 45.5057 16.2955C45.9148 16.4697 46.2803 16.6894 46.6023 16.9545C46.928 17.2197 47.1856 17.5398 47.375 17.9148C47.5644 18.2898 47.6591 18.7292 47.6591 19.233C47.6591 19.9148 47.4848 20.5152 47.1364 21.0341C46.7879 21.5492 46.2841 21.9527 45.625 22.2443C44.9697 22.5322 44.1761 22.6761 43.2443 22.6761C42.339 22.6761 41.553 22.536 40.8864 22.2557C40.2235 21.9754 39.7045 21.5663 39.3295 21.0284C38.9583 20.4905 38.7576 19.8352 38.7273 19.0625H40.8011C40.8314 19.4678 40.9564 19.8049 41.1761 20.0739C41.3958 20.3428 41.6818 20.5436 42.0341 20.6761C42.3902 20.8087 42.7879 20.875 43.2273 20.875C43.6856 20.875 44.0871 20.8068 44.4318 20.6705C44.7803 20.5303 45.053 20.3371 45.25 20.0909C45.447 19.8409 45.5473 19.5492 45.5511 19.2159C45.5473 18.9129 45.4583 18.6629 45.2841 18.4659C45.1098 18.2652 44.8655 18.0985 44.5511 17.9659C44.2405 17.8295 43.8769 17.7083 43.4602 17.6023L42.1364 17.2614C41.178 17.0152 40.4205 16.642 39.8636 16.142C39.3106 15.6383 39.0341 14.9697 39.0341 14.1364C39.0341 13.4508 39.2197 12.8504 39.5909 12.3352C39.9659 11.8201 40.4754 11.4205 41.1193 11.1364C41.7633 10.8485 42.4924 10.7045 43.3068 10.7045C44.1326 10.7045 44.8561 10.8485 45.4773 11.1364C46.1023 11.4205 46.5928 11.8163 46.9489 12.3239C47.3049 12.8277 47.4886 13.4072 47.5 14.0625H45.4716ZM51.9588 22.6761C51.4058 22.6761 50.9077 22.5777 50.4645 22.3807C50.0251 22.1799 49.6766 21.8845 49.419 21.4943C49.1652 21.1042 49.0384 20.6231 49.0384 20.0511C49.0384 19.5587 49.1293 19.1515 49.3111 18.8295C49.4929 18.5076 49.741 18.25 50.0554 18.0568C50.3698 17.8636 50.724 17.7178 51.1179 17.6193C51.5156 17.517 51.9266 17.4432 52.3509 17.3977C52.8622 17.3447 53.277 17.2973 53.5952 17.2557C53.9134 17.2102 54.1444 17.142 54.2884 17.0511C54.4361 16.9564 54.5099 16.8106 54.5099 16.6136V16.5795C54.5099 16.1515 54.383 15.8201 54.1293 15.5852C53.8755 15.3504 53.5099 15.233 53.0327 15.233C52.5289 15.233 52.1293 15.3428 51.8338 15.5625C51.5421 15.7822 51.3452 16.0417 51.2429 16.3409L49.3224 16.0682C49.474 15.5379 49.724 15.0947 50.0724 14.7386C50.4209 14.3788 50.8471 14.1098 51.3509 13.9318C51.8546 13.75 52.4115 13.6591 53.0213 13.6591C53.4418 13.6591 53.8603 13.7083 54.277 13.8068C54.6937 13.9053 55.0743 14.0682 55.419 14.2955C55.7637 14.5189 56.0402 14.8239 56.2486 15.2102C56.4607 15.5966 56.5668 16.0795 56.5668 16.6591V22.5H54.5895V21.3011H54.5213C54.3963 21.5436 54.2202 21.7708 53.9929 21.983C53.7694 22.1913 53.4872 22.3598 53.1463 22.4886C52.8092 22.6136 52.4134 22.6761 51.9588 22.6761ZM52.4929 21.1648C52.9058 21.1648 53.2637 21.0833 53.5668 20.9205C53.8698 20.7538 54.1027 20.5341 54.2656 20.2614C54.4323 19.9886 54.5156 19.6913 54.5156 19.3693V18.3409C54.4512 18.3939 54.3414 18.4432 54.1861 18.4886C54.0346 18.5341 53.8641 18.5739 53.6747 18.608C53.4853 18.642 53.2978 18.6723 53.1122 18.6989C52.9266 18.7254 52.7656 18.7481 52.6293 18.767C52.3224 18.8087 52.0478 18.8769 51.8054 18.9716C51.563 19.0663 51.3717 19.1989 51.2315 19.3693C51.0914 19.536 51.0213 19.7519 51.0213 20.017C51.0213 20.3958 51.1596 20.6818 51.4361 20.875C51.7126 21.0682 52.0649 21.1648 52.4929 21.1648ZM63.0554 13.7727V15.3636H57.8963V13.7727H63.0554ZM59.1861 22.5V12.9489C59.1861 12.3617 59.3073 11.8731 59.5497 11.483C59.7959 11.0928 60.1255 10.8011 60.5384 10.608C60.9512 10.4148 61.4096 10.3182 61.9134 10.3182C62.2694 10.3182 62.5857 10.3466 62.8622 10.4034C63.1387 10.4602 63.3433 10.5114 63.4759 10.5568L63.0668 12.1477C62.9796 12.1212 62.8698 12.0947 62.7372 12.0682C62.6046 12.0379 62.4569 12.0227 62.294 12.0227C61.9115 12.0227 61.6406 12.1155 61.4815 12.3011C61.3262 12.483 61.2486 12.7443 61.2486 13.0852V22.5H59.1861ZM68.2017 22.6705C67.3267 22.6705 66.571 22.4886 65.9347 22.125C65.3021 21.7576 64.8153 21.2386 64.4744 20.5682C64.1335 19.8939 63.9631 19.1004 63.9631 18.1875C63.9631 17.2898 64.1335 16.5019 64.4744 15.8239C64.8191 15.142 65.3002 14.6117 65.9176 14.233C66.535 13.8504 67.2604 13.6591 68.0938 13.6591C68.6316 13.6591 69.1392 13.7462 69.6165 13.9205C70.0975 14.0909 70.5218 14.3561 70.8892 14.7159C71.2604 15.0758 71.5521 15.5341 71.7642 16.0909C71.9763 16.6439 72.0824 17.303 72.0824 18.0682V18.6989H64.929V17.3125H70.1108C70.107 16.9186 70.0218 16.5682 69.8551 16.2614C69.6884 15.9508 69.4555 15.7064 69.1562 15.5284C68.8608 15.3504 68.5161 15.2614 68.1222 15.2614C67.7017 15.2614 67.3324 15.3636 67.0142 15.5682C66.696 15.7689 66.4479 16.0341 66.2699 16.3636C66.0956 16.6894 66.0066 17.0473 66.0028 17.4375V18.6477C66.0028 19.1553 66.0956 19.5909 66.2812 19.9545C66.4669 20.3144 66.7263 20.5909 67.0597 20.7841C67.393 20.9735 67.7831 21.0682 68.2301 21.0682C68.5294 21.0682 68.8002 21.0265 69.0426 20.9432C69.285 20.8561 69.4953 20.7292 69.6733 20.5625C69.8513 20.3958 69.9858 20.1894 70.0767 19.9432L71.9972 20.1591C71.8759 20.6667 71.6449 21.1098 71.304 21.4886C70.9669 21.8636 70.535 22.1553 70.0085 22.3636C69.482 22.5682 68.8797 22.6705 68.2017 22.6705ZM80.7202 16.0795L78.8452 16.2841C78.7921 16.0947 78.6993 15.9167 78.5668 15.75C78.438 15.5833 78.2637 15.4489 78.044 15.3466C77.8243 15.2443 77.5554 15.1932 77.2372 15.1932C76.8092 15.1932 76.4493 15.286 76.1577 15.4716C75.8698 15.6572 75.7277 15.8977 75.7315 16.1932C75.7277 16.447 75.8205 16.6534 76.0099 16.8125C76.2031 16.9716 76.5213 17.1023 76.9645 17.2045L78.4531 17.5227C79.2789 17.7008 79.8925 17.983 80.294 18.3693C80.6993 18.7557 80.9039 19.2614 80.9077 19.8864C80.9039 20.4356 80.7429 20.9205 80.4247 21.3409C80.1103 21.7576 79.6728 22.0833 79.1122 22.3182C78.5516 22.553 77.9077 22.6705 77.1804 22.6705C76.1122 22.6705 75.2524 22.447 74.6009 22C73.9493 21.5492 73.5611 20.9223 73.4361 20.1193L75.4418 19.9261C75.5327 20.3201 75.7259 20.6174 76.0213 20.8182C76.3168 21.0189 76.7012 21.1193 77.1747 21.1193C77.6634 21.1193 78.0554 21.0189 78.3509 20.8182C78.6501 20.6174 78.7997 20.3693 78.7997 20.0739C78.7997 19.8239 78.7031 19.6174 78.5099 19.4545C78.3205 19.2917 78.0251 19.1667 77.6236 19.0795L76.1349 18.767C75.2978 18.5928 74.6785 18.2992 74.277 17.8864C73.8755 17.4697 73.6766 16.9432 73.6804 16.3068C73.6766 15.7689 73.8224 15.303 74.1179 14.9091C74.4171 14.5114 74.8319 14.2045 75.3622 13.9886C75.8963 13.7689 76.5118 13.6591 77.2088 13.6591C78.2315 13.6591 79.0365 13.8769 79.6236 14.3125C80.2145 14.7481 80.58 15.3371 80.7202 16.0795ZM82.6037 22.5V13.7727H84.6605V22.5H82.6037ZM83.6378 12.5341C83.312 12.5341 83.0317 12.4261 82.7969 12.2102C82.562 11.9905 82.4446 11.7273 82.4446 11.4205C82.4446 11.1098 82.562 10.8466 82.7969 10.6307C83.0317 10.411 83.312 10.3011 83.6378 10.3011C83.9673 10.3011 84.2476 10.411 84.4787 10.6307C84.7135 10.8466 84.831 11.1098 84.831 11.4205C84.831 11.7273 84.7135 11.9905 84.4787 12.2102C84.2476 12.4261 83.9673 12.5341 83.6378 12.5341ZM90.571 25.9545C89.8324 25.9545 89.1979 25.8542 88.6676 25.6534C88.1373 25.4564 87.7112 25.1913 87.3892 24.858C87.0672 24.5246 86.8438 24.1553 86.7188 23.75L88.571 23.3011C88.6544 23.4716 88.7756 23.6402 88.9347 23.8068C89.0938 23.9773 89.3078 24.1174 89.5767 24.2273C89.8494 24.3409 90.1922 24.3977 90.6051 24.3977C91.1884 24.3977 91.6714 24.2557 92.054 23.9716C92.4366 23.6913 92.6278 23.2292 92.6278 22.5852V20.9318H92.5256C92.4195 21.1439 92.2642 21.3617 92.0597 21.5852C91.8589 21.8087 91.5919 21.9962 91.2585 22.1477C90.929 22.2992 90.5142 22.375 90.0142 22.375C89.3438 22.375 88.7358 22.2178 88.1903 21.9034C87.6487 21.5852 87.2169 21.1117 86.8949 20.483C86.5767 19.8504 86.4176 19.0587 86.4176 18.108C86.4176 17.1496 86.5767 16.3409 86.8949 15.6818C87.2169 15.0189 87.6506 14.517 88.196 14.1761C88.7415 13.8314 89.3494 13.6591 90.0199 13.6591C90.5313 13.6591 90.9517 13.7462 91.2812 13.9205C91.6146 14.0909 91.8797 14.2973 92.0767 14.5398C92.2737 14.7784 92.4233 15.0038 92.5256 15.2159H92.6392V13.7727H94.6676V22.642C94.6676 23.3883 94.4896 24.0057 94.1335 24.4943C93.7775 24.983 93.2907 25.3485 92.6733 25.5909C92.0559 25.8333 91.3551 25.9545 90.571 25.9545ZM90.5881 20.7614C91.0237 20.7614 91.3949 20.6553 91.7017 20.4432C92.0085 20.2311 92.2415 19.9261 92.4006 19.5284C92.5597 19.1307 92.6392 18.6534 92.6392 18.0966C92.6392 17.5473 92.5597 17.0663 92.4006 16.6534C92.2453 16.2405 92.0142 15.9205 91.7074 15.6932C91.4044 15.4621 91.0313 15.3466 90.5881 15.3466C90.1297 15.3466 89.7472 15.4659 89.4403 15.7045C89.1335 15.9432 88.9025 16.2708 88.7472 16.6875C88.5919 17.1004 88.5142 17.5701 88.5142 18.0966C88.5142 18.6307 88.5919 19.0985 88.7472 19.5C88.9063 19.8977 89.1392 20.2083 89.446 20.4318C89.7566 20.6515 90.1373 20.7614 90.5881 20.7614ZM98.8324 17.3864V22.5H96.7756V10.8636H98.7869V15.2557H98.8892C99.0938 14.7633 99.41 14.375 99.8381 14.0909C100.27 13.803 100.819 13.6591 101.486 13.6591C102.092 13.6591 102.62 13.786 103.071 14.0398C103.522 14.2936 103.87 14.6648 104.116 15.1534C104.366 15.642 104.491 16.2386 104.491 16.9432V22.5H102.435V17.2614C102.435 16.6742 102.283 16.2178 101.98 15.892C101.681 15.5625 101.26 15.3977 100.719 15.3977C100.355 15.3977 100.029 15.4773 99.7415 15.6364C99.4574 15.7917 99.2339 16.017 99.071 16.3125C98.9119 16.608 98.8324 16.9659 98.8324 17.3864ZM110.946 13.7727V15.3636H105.929V13.7727H110.946ZM107.168 11.6818H109.224V19.875C109.224 20.1515 109.266 20.3636 109.349 20.5114C109.437 20.6553 109.55 20.7538 109.69 20.8068C109.83 20.8598 109.986 20.8864 110.156 20.8864C110.285 20.8864 110.402 20.8769 110.509 20.858C110.618 20.839 110.702 20.822 110.759 20.8068L111.105 22.4148C110.995 22.4527 110.838 22.4943 110.634 22.5398C110.433 22.5852 110.187 22.6117 109.895 22.6193C109.38 22.6345 108.916 22.5568 108.503 22.3864C108.09 22.2121 107.762 21.9432 107.52 21.5795C107.281 21.2159 107.164 20.7614 107.168 20.2159V11.6818Z" fill="#000000"/>
<defs>
<linearGradient id="paint0_linear_2254_6077" x1="32" y1="1" x2="32" y2="33" gradientUnits="userSpaceOnUse">
<stop stop-color="white" stop-opacity="0.85"/>
<stop offset="1" stop-color="white" stop-opacity="0"/>
</linearGradient>
<linearGradient id="paint1_linear_2254_6077" x1="10" y1="9.83325" x2="23.2597" y2="21.767" gradientUnits="userSpaceOnUse">
<stop stop-color="#777C85"/>
<stop offset="1" stop-color="#282F3D"/>
</linearGradient>
</defs>
</svg>
